<svg id="Ebene_1" data-name="Ebene 1" xmlns="http://www.w3.org/2000/svg" viewBox="0 0 221.86 104.71"><defs><style>.cls-1{fill:#af9f99;}</style></defs><path class="cls-1" d="M225.42,110.56h1.33V101.1h4.51V99.87H220.92v1.23h4.5Zm-17,0h1.33v-8l7,8h.68V99.87H216.1v8l-6.95-8h-.7Zm-12.21-4.12,2.34-4.75,2.36,4.75Zm-3.46,4.12h1.43l1.41-2.87h5.92l1.45,2.87h1.45l-5.31-10.69H198Zm-11.84-5.93V101.1h4.78c1.29,0,2,.67,2,1.78s-.7,1.75-2.05,1.75Zm-1.33,5.93h1.33v-4.68h4.14l2.68,4.68h1.47l-2.68-4.7a3,3,0,0,0,2.54-3c0-1.86-1.25-3-3.35-3h-6.13ZM166.88,99.87h-1.34v7.28c0,2.62,1.25,3.69,4.41,3.69s4.41-1.07,4.41-3.69V99.87H173v6.92c0,2.23-.64,2.8-3.08,2.8s-3.07-.57-3.07-2.8Zm-13,6.57,2.34-4.75,2.36,4.75Zm-3.46,4.12h1.43l1.41-2.87h5.92l1.45,2.87h1.45l-5.3-10.69h-1.11Zm-6.23,0h1.33V101.1h4.5V99.87H139.72v1.23h4.51ZM126.58,109a8.75,8.75,0,0,0,5.58,1.88c3,0,4.73-1.58,4.73-3.43,0-1.63-1.29-2.92-3.54-3.18-2-.22-3.49-.06-4.4-.75a1.15,1.15,0,0,1-.52-1c0-.89,1.09-1.64,2.78-1.64a6.82,6.82,0,0,1,4.33,1.6l.77-1.11a8.66,8.66,0,0,0-5.12-1.74c-2.54,0-4.15,1.31-4.15,3a2.41,2.41,0,0,0,1.53,2.21,14,14,0,0,0,4.41.67c1.66.14,2.5.94,2.5,1.91,0,1.27-1.29,2.24-3.34,2.24a7.85,7.85,0,0,1-4.78-1.81Zm-12.52,1.6h8.86v-1.23h-7.53v-3.87h4.29v-1.23h-4.29V101.1h7.09V99.87h-8.42Zm-12.93-5.93V101.1h4.79c1.29,0,2,.67,2,1.78s-.69,1.75-2,1.75Zm-1.33,5.93h1.33v-4.68h4.15l2.68,4.68h1.47l-2.68-4.7a3,3,0,0,0,2.54-3c0-1.86-1.25-3-3.35-3H99.8ZM84.61,105.4A3.48,3.48,0,0,0,84,106a2.53,2.53,0,0,0-.44.69,2.31,2.31,0,0,0-.17.91,1.86,1.86,0,0,0,.19.81,2,2,0,0,0,.5.62,2.49,2.49,0,0,0,1.53.55,2.73,2.73,0,0,0,1.43-.38,3.4,3.4,0,0,0,1.06-1l-2.68-3.22c-.27.15-.53.31-.78.47m2.8,4.94a4.57,4.57,0,0,1-1.87.41,4.25,4.25,0,0,1-1.9-.37,3,3,0,0,1-1.11-.86,2.69,2.69,0,0,1-.51-1,3.66,3.66,0,0,1-.13-.89,3.22,3.22,0,0,1,.22-1.21,3.64,3.64,0,0,1,.59-.94,4.52,4.52,0,0,1,.87-.75,10.8,10.8,0,0,1,1.05-.63l-.47-.66a4.83,4.83,0,0,1-.42-.62,3,3,0,0,1-.29-.67,2.81,2.81,0,0,1-.11-.8,2.52,2.52,0,0,1,.17-.9,2.35,2.35,0,0,1,.51-.77,2.47,2.47,0,0,1,.82-.53A3.08,3.08,0,0,1,86,98.9a3.7,3.7,0,0,1,1.05.15,2.67,2.67,0,0,1,.91.45,2.3,2.3,0,0,1,.63.75,2.19,2.19,0,0,1,.24,1,2.4,2.4,0,0,1-.19,1,3.15,3.15,0,0,1-.48.83,4.11,4.11,0,0,1-.71.67,7.22,7.22,0,0,1-.81.55l2.1,2.57a6.37,6.37,0,0,0,.38-1.82H90.4c0,.35-.07.65-.1.89a5.74,5.74,0,0,1-.15.68,4.44,4.44,0,0,1-.22.61l-.31.7,2.27,2.62H90.08l-1.25-1.45a3.21,3.21,0,0,1-1.42,1.23m-1-7.3a4.25,4.25,0,0,0,.5-.44,2.26,2.26,0,0,0,.38-.55,1.51,1.51,0,0,0,.15-.68,1.19,1.19,0,0,0-.36-.87,1.3,1.3,0,0,0-1-.37,1.58,1.58,0,0,0-.92.3,1.08,1.08,0,0,0-.42.94,1.22,1.22,0,0,0,.11.52,3.6,3.6,0,0,0,.26.52,5.6,5.6,0,0,0,.36.49c.13.17.27.33.4.49l.52-.35m-22.45,7.52h8.32v-1.23h-7V99.87H63.92Zm-13,0h8.85v-1.23H52.22v-3.87H56.5v-1.23H52.22V101.1H59.3V99.87H50.89Zm-9.33,0h1.33V101.1H47.4V99.87H37.05v1.23h4.51Zm-12.38-1a4.36,4.36,0,1,1,4.17-4.35,4.13,4.13,0,0,1-4.17,4.35m0,1.25a5.61,5.61,0,0,0,0-11.21,5.61,5.61,0,0,0,0,11.21m-19.25-.28h1.35v-5.24H17.6v5.24h1.33V99.87H17.6v4.22H11.28V99.87H9.93Z" transform="translate(-9.54 -6.13)"/><path class="cls-1" d="M138.76,34.47a7.34,7.34,0,0,0,14.64.83,2.55,2.55,0,0,1,2.53-2.22,7.45,7.45,0,0,0,0-14.89A2.55,2.55,0,0,1,153.4,16a7.34,7.34,0,1,0-10.58,7.42,2.51,2.51,0,0,1,0,4.46,7.42,7.42,0,0,0-4.06,6.61m-2.8-.75a12.11,12.11,0,0,1,.53-3.3l-1.42.45a.86.86,0,0,1-.83-.16,1,1,0,0,1-.37-.8V28.58H92.15a1.7,1.7,0,0,0-1.39,1.23v7.76a.85.85,0,0,1-.92.76H86.47a.85.85,0,0,1-.92-.76V30.24h0s0,0,0,0A1.69,1.69,0,0,0,84,28.58h-.46a1.7,1.7,0,0,0-1.47,1.62s0,0,0,0h0v7.33a.86.86,0,0,1-.93.76H77.79a.86.86,0,0,1-.93-.76V30a1.71,1.71,0,0,0-1.44-1.46h-1.2a1.47,1.47,0,0,1-1.42-1.51V24.14a1.47,1.47,0,0,1,1.42-1.52h59.65V21.3a1,1,0,0,1,.37-.8.89.89,0,0,1,.83-.17l1.41.45a11.63,11.63,0,0,1-.52-3.25c0-6.27,4.79-11.4,10.66-11.4,4.86,0,8.84,3.58,10.08,8.46a11,11,0,0,1,9.08,11.05A11.07,11.07,0,0,1,156.7,36.7c-1.25,4.85-5.22,8.42-10.08,8.42C140.75,45.12,136,40,136,33.72" transform="translate(-9.54 -6.13)"/><path class="cls-1" d="M210.53,83.68h2.81V75.61l5.5-4.62L228,83.68h3.4L220.86,69.06,230,61h-3.69l-13,11.29V61h-2.81Zm-14.87.08h2.85V60.91h-2.85Zm-20.39-.08h2.81v-20h9.54V61H165.73v2.6h9.54Zm-36.55,0h2.82V66.75l14.74,16.93h1.43V61h-2.82V78L140.19,61h-1.47Zm-26.45-8.74,5-10,5,10ZM105,83.68h3l3-6.09h12.52l3.06,6.09h3.07L118.4,61h-2.35Zm-32.54,0h2.77V66l9,13.4,9-13.4V83.68h2.77V61H93.38L84.18,74.9,75,61h-2.6ZM50.16,81.62c-5,0-8.82-3.82-8.82-9.2s3.78-9.24,8.82-9.24S59,67,59,72.42s-3.74,9.2-8.82,9.2m0,2.65A11.44,11.44,0,0,0,61.92,72.42,11.46,11.46,0,0,0,50.16,60.54c-6.76,0-11.72,5-11.72,11.88A11.4,11.4,0,0,0,50.16,84.27M12.35,71.12V63.64H22.48c2.73,0,4.2,1.43,4.2,3.78s-1.47,3.7-4.33,3.7ZM9.54,83.68h2.81V73.77h8.78l5.67,9.91h3.11l-5.67-10a6.3,6.3,0,0,0,5.38-6.38c0-4-2.65-6.3-7.1-6.3h-13Z" transform="translate(-9.54 -6.13)"/></svg>